<svg width="256" height="180" xmlns="http://www.w3.org/2000/svg" xmlns:xlink="http://www.w3.org/1999/xlink" xml:space="preserve" overflow="hidden"><g transform="translate(-942 -23)"><path d="M238.759 77.6021 234.056 77.6021 234.056 75.808C234.056 68.7769 228.332 63.0564 221.301 63.0564L217.724 63.0564 217.724 59.879C217.724 52.8479 212.004 47.1274 204.973 47.1274L12.7516 47.1274C5.72046 47.1247 0 52.8451 0 59.8762L0 178.709C0 192.867 11.5192 204.386 25.6764 204.386L229.031 204.386C241.428 204.386 251.513 192.308 251.513 177.457L251.513 90.3537C251.51 83.3226 245.79 77.6021 238.759 77.6021ZM25.6764 193.207C17.6812 193.207 11.1782 186.704 11.1782 178.709L11.1782 59.8762C11.1782 59.0071 11.8853 58.3029 12.7516 58.3029L204.97 58.3029C205.839 58.3029 206.543 59.0099 206.543 59.8762L206.543 177.457C206.543 183.334 208.122 188.775 210.799 193.207L25.6764 193.207ZM240.332 177.457C240.332 185.995 235.154 193.207 229.028 193.207 222.902 193.207 217.724 185.995 217.724 177.457L217.724 74.2319 221.298 74.2319C222.17 74.2319 222.874 74.9389 222.874 75.8052L222.874 178.838C222.874 181.923 225.378 184.427 228.464 184.427 231.549 184.427 234.053 181.923 234.053 178.838L234.053 88.7803 238.756 88.7803C239.625 88.7803 240.329 89.4874 240.329 90.3537L240.329 177.457Z" transform="matrix(1.00553 0 0 1 943.407 -12.6852)"/><path d="M65.3033 177.904 25.8217 177.904C20.8362 177.904 16.7813 173.85 16.7813 168.864L16.7813 136.676C16.7813 131.694 20.8362 127.639 25.8217 127.639L65.3033 127.639C70.286 127.639 74.3409 131.694 74.3409 136.676L74.3409 168.864C74.3437 173.85 70.286 177.904 65.3033 177.904ZM27.9596 166.726 63.1626 166.726 63.1626 138.817 27.9596 138.817 27.9596 166.726Z" transform="matrix(1.00553 0 0 1 943.407 -12.6852)"/><path d="M194.11 138.817 87.2182 138.817C84.133 138.817 81.6291 136.313 81.6291 133.228 81.6291 130.143 84.133 127.639 87.2182 127.639L194.11 127.639C197.195 127.639 199.699 130.143 199.699 133.228 199.699 136.313 197.195 138.817 194.11 138.817Z" transform="matrix(1.00553 0 0 1 943.407 -12.6852)"/><path d="M194.11 158.359 87.2182 158.359C84.133 158.359 81.6291 155.855 81.6291 152.77 81.6291 149.685 84.133 147.181 87.2182 147.181L194.11 147.181C197.195 147.181 199.699 149.685 199.699 152.77 199.699 155.855 197.195 158.359 194.11 158.359Z" transform="matrix(1.00553 0 0 1 943.407 -12.6852)"/><path d="M163.219 177.904 87.2154 177.904C84.1302 177.904 81.6263 175.401 81.6263 172.315 81.6263 169.23 84.1302 166.726 87.2154 166.726L163.219 166.726C166.304 166.726 168.808 169.23 168.808 172.315 168.808 175.401 166.307 177.904 163.219 177.904Z" transform="matrix(1.00553 0 0 1 943.407 -12.6852)"/><path d="M65.7336 109.608C63.9982 109.608 62.3187 108.798 61.2456 107.35L51.5373 94.2773 51.5373 104.016C51.5373 107.101 49.0333 109.605 45.9481 109.605 42.8629 109.605 40.359 107.101 40.359 104.016L40.359 77.3758C40.359 74.9641 41.9044 72.8262 44.1932 72.0689 46.4875 71.3088 48.997 72.108 50.4334 74.0446L60.1417 87.1176 60.1417 77.3785C60.1417 74.2934 62.6456 71.7894 65.7308 71.7894 68.816 71.7894 71.3199 74.2934 71.3199 77.3785L71.3199 104.019C71.3199 106.431 69.7746 108.569 67.4858 109.326 66.9101 109.516 66.3177 109.608 65.7336 109.608Z" transform="matrix(1.00553 0 0 1 943.407 -12.6852)"/><path d="M96.2027 96.2893C99.2879 96.2893 101.792 93.7854 101.792 90.7002 101.792 87.615 99.2879 85.1111 96.2027 85.1111L88.3528 85.1111 88.3528 82.9677 96.2027 82.9677C99.2879 82.9677 101.792 80.4637 101.792 77.3785 101.792 74.2934 99.2879 71.7894 96.2027 71.7894L82.7637 71.7894C79.6785 71.7894 77.1745 74.2934 77.1745 77.3785L77.1745 104.019C77.1745 107.104 79.6785 109.608 82.7637 109.608L96.2027 109.608C99.2879 109.608 101.792 107.104 101.792 104.019 101.792 100.934 99.2879 98.43 96.2027 98.43L88.3528 98.43 88.3528 96.2865 96.2027 96.2865Z" transform="matrix(1.00553 0 0 1 943.407 -12.6852)"/><path d="M117.807 109.608C117.724 109.608 117.64 109.608 117.556 109.603 115.052 109.491 112.931 107.727 112.364 105.288L106.151 78.6473C105.45 75.6403 107.319 72.6362 110.326 71.9347 113.328 71.2277 116.338 73.1001 117.039 76.1098L118.732 83.3701 121.284 75.6292C122.041 73.3376 124.179 71.7894 126.591 71.7894L126.591 71.7894C129.002 71.7894 131.143 73.3376 131.898 75.6292L134.449 83.3701 136.143 76.1098C136.841 73.1029 139.851 71.2361 142.852 71.9347 145.859 72.6362 147.726 75.6403 147.025 78.6473L140.809 105.288C140.242 107.727 138.118 109.491 135.617 109.603 133.191 109.734 130.847 108.147 130.062 105.768L126.588 95.2302 123.112 105.771C122.357 108.068 120.211 109.608 117.807 109.608Z" transform="matrix(1.00553 0 0 1 943.407 -12.6852)"/><path d="M164.75 109.608 154.81 109.608C151.725 109.608 149.221 107.104 149.221 104.019 149.221 100.934 151.725 98.43 154.81 98.43L164.75 98.43C165.343 98.43 165.824 97.9493 165.824 97.3596 165.824 96.77 165.343 96.2893 164.75 96.2893L161.472 96.2893C154.718 96.2893 149.221 90.7952 149.221 84.0408 149.221 77.2863 154.718 71.7922 161.472 71.7922L169.146 71.7922C172.231 71.7922 174.735 74.2962 174.735 77.3813 174.735 80.4665 172.231 82.9705 169.146 82.9705L161.472 82.9705C160.88 82.9705 160.399 83.4511 160.399 84.0408 160.399 84.6304 160.88 85.1111 161.472 85.1111L164.75 85.1111C171.505 85.1111 177.002 90.6052 177.002 97.3596 177.002 104.114 171.505 109.608 164.75 109.608Z" transform="matrix(1.00553 0 0 1 943.407 -12.6852)"/><path d="M28.6806 96.2893 21.7025 96.2893C18.6174 96.2893 16.1134 93.7854 16.1134 90.7002 16.1134 87.615 18.6174 85.1111 21.7025 85.1111L28.6806 85.1111C31.7658 85.1111 34.2697 87.615 34.2697 90.7002 34.2697 93.7854 31.7658 96.2893 28.6806 96.2893Z" transform="matrix(1.00553 0 0 1 943.407 -12.6852)"/><path d="M194.11 96.2893 187.132 96.2893C184.047 96.2893 181.543 93.7854 181.543 90.7002 181.543 87.615 184.047 85.1111 187.132 85.1111L194.11 85.1111C197.195 85.1111 199.699 87.615 199.699 90.7002 199.699 93.7854 197.195 96.2893 194.11 96.2893Z" transform="matrix(1.00553 0 0 1 943.407 -12.6852)"/></g></svg>